<svg width="42" height="28" viewBox="0 0 42 28" fill="none" xmlns="http://www.w3.org/2000/svg">
<path d="M41.7196 12.9244C41.2939 9.15335 40.4597 6.11938 39.2433 3.91674C37.4534 0.677074 35.203 0 33.6303 0C29.0947 0 26.5663 0.831344 25.4106 2.69115C25.2629 2.92256 24.9936 3.06826 24.6895 3.06826H17.3126C17.0085 3.06826 16.7392 2.92256 16.5915 2.69115C15.4358 0.831344 12.9074 0 8.37181 0C6.79913 0 4.54871 0.677074 2.75881 3.91674C1.54237 6.11938 0.708241 9.14478 0.282488 12.9244C-0.134577 16.6269 -0.091133 19.7037 0.421509 22.0777C1.06448 25.086 2.4547 26.9801 4.5574 27.6829C5.19169 27.8972 5.82598 28 6.46026 28C9.26676 28 12.0037 25.9431 14.0196 22.2492C14.4453 22.4034 14.8971 22.4891 15.3663 22.4891C15.4272 22.4891 15.488 22.4891 15.5575 22.4806C16.5828 22.4291 17.5299 21.992 18.2163 21.2464C18.8419 20.5693 19.1894 19.7123 19.2155 18.8038H22.804C22.804 18.8295 22.804 18.8466 22.804 18.8724C22.8561 19.8837 23.2993 20.8179 24.0552 21.495C24.7677 22.1377 25.68 22.4806 26.6358 22.4806C26.6966 22.4806 26.7574 22.4806 26.8269 22.472C27.2353 22.4549 27.6263 22.3691 27.9912 22.232C30.4589 26.7573 34.0126 28.8313 37.4534 27.6658C39.5474 26.9544 40.9463 25.0689 41.5893 22.0606C42.0846 19.7037 42.1367 16.6269 41.7196 12.9244ZM33.1872 6.4622C34.0387 6.4622 34.7338 7.14784 34.7338 7.98776C34.7338 8.82767 34.0387 9.51332 33.1872 9.51332C32.3357 9.51332 31.6406 8.82767 31.6406 7.98776C31.6406 7.14784 32.327 6.4622 33.1872 6.4622ZM16.4438 5.09091C16.7218 5.16804 17.0085 5.2109 17.3126 5.2109H24.6895C24.9849 5.2109 25.2803 5.16804 25.5584 5.09091V8.86195C25.5584 9.65044 24.9067 10.2847 24.116 10.2847H17.8948C17.0954 10.2847 16.4524 9.64187 16.4524 8.86195V5.09091H16.4438ZM10.7699 12.0416C10.544 12.0416 10.3529 12.2216 10.3529 12.453V14.1414C10.3529 14.3642 10.1704 14.5528 9.9358 14.5528H7.68539C7.45948 14.5528 7.26833 14.3728 7.26833 14.1414V12.453C7.26833 12.2302 7.08586 12.0416 6.85126 12.0416H5.13956C4.91365 12.0416 4.72249 11.8616 4.72249 11.6302V9.41047C4.72249 9.18763 4.90496 8.99908 5.13956 8.99908H6.85126C7.07717 8.99908 7.26833 8.8191 7.26833 8.5877V6.83073C7.26833 6.6079 7.45079 6.41935 7.68539 6.41935H9.9358C10.1617 6.41935 10.3529 6.59933 10.3529 6.83073V8.5877C10.3529 8.81053 10.5353 8.99908 10.7699 8.99908H12.4816C12.7075 8.99908 12.8987 9.17906 12.8987 9.41047V11.6302C12.8987 11.8531 12.7162 12.0416 12.4816 12.0416H10.7699V12.0416ZM15.4358 20.3465C14.984 20.3722 14.567 20.2094 14.2455 19.9351C14.2194 19.918 14.202 19.8923 14.176 19.8665C14.1586 19.8494 14.1412 19.8323 14.1238 19.8151C14.1065 19.798 14.0891 19.7808 14.0804 19.7637C14.063 19.738 14.0369 19.7123 14.0196 19.6866C14.0109 19.678 14.0109 19.6694 14.0022 19.6609C13.8197 19.4123 13.7068 19.1038 13.6894 18.7781C13.6633 18.1524 13.9848 17.5953 14.4974 17.2868C14.732 17.1497 14.9927 17.064 15.2794 17.0468C15.3142 17.0468 15.349 17.0468 15.3837 17.0468C15.4185 17.0468 15.4619 17.0468 15.4967 17.0554C15.5054 17.0554 15.5227 17.0554 15.5314 17.0554C15.6357 17.064 15.74 17.0897 15.8355 17.1154H15.8442C15.8877 17.1325 15.9398 17.1411 15.9832 17.1668H15.9919C16.3829 17.3211 16.6957 17.6211 16.8782 17.9982C16.8782 18.0067 16.8782 18.0067 16.8869 18.0153C16.9738 18.2039 17.0259 18.401 17.0346 18.6152C17.0693 19.5237 16.3569 20.3036 15.4358 20.3465ZM20.9967 15.8041C20.345 15.8041 19.8237 15.2899 19.8237 14.6471C19.8237 14.0043 20.345 13.4901 20.9967 13.4901C21.6484 13.4901 22.1697 14.0043 22.1697 14.6471C22.1697 15.2899 21.6484 15.8041 20.9967 15.8041ZM26.714 20.3465C25.793 20.3893 25.011 19.6866 24.9675 18.7781C24.9501 18.4953 25.011 18.2296 25.1326 17.9896C25.1326 17.981 25.1413 17.981 25.1413 17.9725C25.1587 17.9296 25.1847 17.8953 25.2108 17.8525C25.2108 17.8439 25.2195 17.8439 25.2195 17.8353C25.2977 17.7068 25.402 17.5868 25.5149 17.4839L25.5236 17.4754C25.6018 17.4068 25.68 17.3468 25.7756 17.2954C25.7843 17.2954 25.7843 17.2868 25.793 17.2868C25.8277 17.2611 25.8712 17.244 25.9059 17.2268C25.9146 17.2182 25.932 17.2182 25.9407 17.2097C25.9754 17.1925 26.0189 17.1754 26.0536 17.1582C26.0623 17.1582 26.071 17.1497 26.0797 17.1497C26.1231 17.1325 26.1753 17.1154 26.2187 17.1068C26.2361 17.1068 26.2448 17.0983 26.2622 17.0983C26.2969 17.0897 26.3317 17.0811 26.3751 17.0725C26.3925 17.0725 26.4012 17.064 26.4186 17.064C26.4707 17.0554 26.5228 17.0554 26.5663 17.0468C26.6097 17.0468 26.6532 17.0468 26.6966 17.0468C26.7227 17.0468 26.7487 17.0468 26.7748 17.0468C26.8009 17.0468 26.8356 17.0554 26.8617 17.0554C26.8878 17.0554 26.9138 17.064 26.9399 17.064C26.966 17.0725 27.0007 17.0725 27.0268 17.0811C27.0528 17.0897 27.0789 17.0897 27.0963 17.0983C27.1224 17.1068 27.1484 17.1154 27.1832 17.124C27.2092 17.1325 27.2266 17.1411 27.2527 17.1497C27.2788 17.1583 27.3048 17.1754 27.3309 17.184C27.357 17.1925 27.3743 17.2011 27.4004 17.2182C27.4265 17.2268 27.4525 17.244 27.4786 17.2611C27.496 17.2697 27.522 17.2868 27.5394 17.2954C27.5655 17.3125 27.5829 17.3297 27.6089 17.3382C27.6263 17.3554 27.6524 17.3639 27.6697 17.3811C27.6871 17.3982 27.7132 17.4154 27.7306 17.4325C27.7479 17.4496 27.774 17.4668 27.7914 17.4839C27.8088 17.5011 27.8261 17.5182 27.8522 17.5439C27.8696 17.5611 27.887 17.5782 27.9043 17.5953C27.9217 17.6125 27.9391 17.6382 27.9565 17.6553C27.9739 17.6725 27.9912 17.6982 28.0086 17.7153C28.026 17.7325 28.0347 17.7582 28.0521 17.7839C28.0694 17.8096 28.0781 17.8268 28.0955 17.8525C28.1129 17.8782 28.1216 17.9039 28.1389 17.921C28.1476 17.9467 28.165 17.9639 28.1737 17.9896C28.1824 18.0153 28.1998 18.041 28.2085 18.0667C28.2171 18.0924 28.2258 18.1096 28.2345 18.1353C28.2432 18.161 28.2519 18.1953 28.2606 18.221C28.2693 18.2467 28.278 18.2639 28.278 18.2896C28.2867 18.3238 28.2953 18.3581 28.2953 18.3924C28.2953 18.4096 28.304 18.4267 28.304 18.4524C28.3127 18.5038 28.3214 18.5638 28.3214 18.6152C28.3214 18.6667 28.3214 18.7181 28.3214 18.7695C28.3214 18.7781 28.3214 18.7781 28.3214 18.7867C28.3214 18.8381 28.3127 18.8895 28.304 18.9324C28.304 18.9409 28.304 18.9409 28.304 18.9495C28.2953 19.0009 28.2867 19.0523 28.2693 19.0952C28.2693 19.0952 28.2693 19.0952 28.2693 19.1038C28.1998 19.3609 28.0694 19.6009 27.887 19.798C27.8522 19.8323 27.8175 19.8665 27.7827 19.9008C27.774 19.9094 27.7653 19.9094 27.7653 19.918C27.4699 20.1665 27.1137 20.3294 26.714 20.3465ZM29.1034 10.4904C29.1034 9.65044 29.7985 8.9648 30.65 8.9648C31.5015 8.9648 32.1966 9.65044 32.1966 10.4904C32.1966 11.3303 31.5015 12.0159 30.65 12.0159C29.7985 12.0159 29.1034 11.3303 29.1034 10.4904ZM33.1872 14.5099C32.3357 14.5099 31.6406 13.8243 31.6406 12.9844C31.6406 12.1445 32.3357 11.4588 33.1872 11.4588C34.0387 11.4588 34.7338 12.1445 34.7338 12.9844C34.7338 13.8243 34.0387 14.5099 33.1872 14.5099ZM35.7156 12.0159C34.8641 12.0159 34.169 11.3303 34.169 10.4904C34.169 9.65044 34.8641 8.9648 35.7156 8.9648C36.5671 8.9648 37.2622 9.65044 37.2622 10.4904C37.2622 11.3303 36.5758 12.0159 35.7156 12.0159Z" fill="#1064BC"/>
</svg>
