<svg width="50" height="36" viewBox="0 0 50 36" fill="none" xmlns="http://www.w3.org/2000/svg">
<g filter="url(#filter0_d_4_639)">
<path d="M45.7196 12.9244C45.2939 9.15335 44.4597 6.11938 43.2433 3.91674C41.4534 0.677074 39.203 0 37.6303 0C33.0947 0 30.5663 0.831344 29.4106 2.69115C29.2629 2.92256 28.9936 3.06826 28.6895 3.06826H21.3126C21.0085 3.06826 20.7392 2.92256 20.5915 2.69115C19.4358 0.831344 16.9074 0 12.3718 0C10.7991 0 8.54871 0.677074 6.75881 3.91674C5.54237 6.11938 4.70824 9.14478 4.28249 12.9244C3.86542 16.6269 3.90887 19.7037 4.42151 22.0777C5.06448 25.086 6.4547 26.9801 8.5574 27.6829C9.19169 27.8972 9.82598 28 10.4603 28C13.2668 28 16.0037 25.9431 18.0196 22.2492C18.4453 22.4034 18.8971 22.4891 19.3663 22.4891C19.4272 22.4891 19.488 22.4891 19.5575 22.4806C20.5828 22.4291 21.5299 21.992 22.2163 21.2464C22.8419 20.5693 23.1894 19.7123 23.2155 18.8038H26.804C26.804 18.8295 26.804 18.8466 26.804 18.8724C26.8561 19.8837 27.2993 20.8179 28.0552 21.495C28.7677 22.1377 29.68 22.4806 30.6358 22.4806C30.6966 22.4806 30.7574 22.4806 30.8269 22.472C31.2353 22.4549 31.6263 22.3691 31.9912 22.232C34.4589 26.7573 38.0126 28.8313 41.4534 27.6658C43.5474 26.9544 44.9463 25.0689 45.5893 22.0606C46.0846 19.7037 46.1367 16.6269 45.7196 12.9244ZM37.1872 6.4622C38.0387 6.4622 38.7338 7.14784 38.7338 7.98776C38.7338 8.82767 38.0387 9.51332 37.1872 9.51332C36.3357 9.51332 35.6406 8.82767 35.6406 7.98776C35.6406 7.14784 36.327 6.4622 37.1872 6.4622ZM20.4438 5.09091C20.7218 5.16804 21.0085 5.2109 21.3126 5.2109H28.6895C28.9849 5.2109 29.2803 5.16804 29.5584 5.09091V8.86195C29.5584 9.65044 28.9067 10.2847 28.116 10.2847H21.8948C21.0954 10.2847 20.4524 9.64187 20.4524 8.86195V5.09091H20.4438ZM14.7699 12.0416C14.544 12.0416 14.3529 12.2216 14.3529 12.453V14.1414C14.3529 14.3642 14.1704 14.5528 13.9358 14.5528H11.6854C11.4595 14.5528 11.2683 14.3728 11.2683 14.1414V12.453C11.2683 12.2302 11.0859 12.0416 10.8513 12.0416H9.13956C8.91365 12.0416 8.72249 11.8616 8.72249 11.6302V9.41047C8.72249 9.18763 8.90496 8.99908 9.13956 8.99908H10.8513C11.0772 8.99908 11.2683 8.8191 11.2683 8.5877V6.83073C11.2683 6.6079 11.4508 6.41935 11.6854 6.41935H13.9358C14.1617 6.41935 14.3529 6.59933 14.3529 6.83073V8.5877C14.3529 8.81053 14.5353 8.99908 14.7699 8.99908H16.4816C16.7075 8.99908 16.8987 9.17906 16.8987 9.41047V11.6302C16.8987 11.8531 16.7162 12.0416 16.4816 12.0416H14.7699V12.0416ZM19.4358 20.3465C18.984 20.3722 18.567 20.2094 18.2455 19.9351C18.2194 19.918 18.202 19.8923 18.176 19.8665C18.1586 19.8494 18.1412 19.8323 18.1238 19.8151C18.1065 19.798 18.0891 19.7808 18.0804 19.7637C18.063 19.738 18.0369 19.7123 18.0196 19.6866C18.0109 19.678 18.0109 19.6694 18.0022 19.6609C17.8197 19.4123 17.7068 19.1038 17.6894 18.7781C17.6633 18.1524 17.9848 17.5953 18.4974 17.2868C18.732 17.1497 18.9927 17.064 19.2794 17.0468C19.3142 17.0468 19.349 17.0468 19.3837 17.0468C19.4185 17.0468 19.4619 17.0468 19.4967 17.0554C19.5054 17.0554 19.5227 17.0554 19.5314 17.0554C19.6357 17.064 19.74 17.0897 19.8355 17.1154H19.8442C19.8877 17.1325 19.9398 17.1411 19.9832 17.1668H19.9919C20.3829 17.3211 20.6957 17.6211 20.8782 17.9982C20.8782 18.0067 20.8782 18.0067 20.8869 18.0153C20.9738 18.2039 21.0259 18.401 21.0346 18.6152C21.0693 19.5237 20.3569 20.3036 19.4358 20.3465ZM24.9967 15.8041C24.345 15.8041 23.8237 15.2899 23.8237 14.6471C23.8237 14.0043 24.345 13.4901 24.9967 13.4901C25.6484 13.4901 26.1697 14.0043 26.1697 14.6471C26.1697 15.2899 25.6484 15.8041 24.9967 15.8041ZM30.714 20.3465C29.793 20.3893 29.011 19.6866 28.9675 18.7781C28.9501 18.4953 29.011 18.2296 29.1326 17.9896C29.1326 17.981 29.1413 17.981 29.1413 17.9725C29.1587 17.9296 29.1847 17.8953 29.2108 17.8525C29.2108 17.8439 29.2195 17.8439 29.2195 17.8353C29.2977 17.7068 29.402 17.5868 29.5149 17.4839L29.5236 17.4754C29.6018 17.4068 29.68 17.3468 29.7756 17.2954C29.7843 17.2954 29.7843 17.2868 29.793 17.2868C29.8277 17.2611 29.8712 17.244 29.9059 17.2268C29.9146 17.2182 29.932 17.2182 29.9407 17.2097C29.9754 17.1925 30.0189 17.1754 30.0536 17.1582C30.0623 17.1582 30.071 17.1497 30.0797 17.1497C30.1231 17.1325 30.1753 17.1154 30.2187 17.1068C30.2361 17.1068 30.2448 17.0983 30.2622 17.0983C30.2969 17.0897 30.3317 17.0811 30.3751 17.0725C30.3925 17.0725 30.4012 17.064 30.4186 17.064C30.4707 17.0554 30.5228 17.0554 30.5663 17.0468C30.6097 17.0468 30.6532 17.0468 30.6966 17.0468C30.7227 17.0468 30.7487 17.0468 30.7748 17.0468C30.8009 17.0468 30.8356 17.0554 30.8617 17.0554C30.8878 17.0554 30.9138 17.064 30.9399 17.064C30.966 17.0725 31.0007 17.0725 31.0268 17.0811C31.0528 17.0897 31.0789 17.0897 31.0963 17.0983C31.1224 17.1068 31.1484 17.1154 31.1832 17.124C31.2092 17.1325 31.2266 17.1411 31.2527 17.1497C31.2788 17.1583 31.3048 17.1754 31.3309 17.184C31.357 17.1925 31.3743 17.2011 31.4004 17.2182C31.4265 17.2268 31.4525 17.244 31.4786 17.2611C31.496 17.2697 31.522 17.2868 31.5394 17.2954C31.5655 17.3125 31.5829 17.3297 31.6089 17.3382C31.6263 17.3554 31.6524 17.3639 31.6697 17.3811C31.6871 17.3982 31.7132 17.4154 31.7306 17.4325C31.7479 17.4496 31.774 17.4668 31.7914 17.4839C31.8088 17.5011 31.8261 17.5182 31.8522 17.5439C31.8696 17.5611 31.887 17.5782 31.9043 17.5953C31.9217 17.6125 31.9391 17.6382 31.9565 17.6553C31.9739 17.6725 31.9912 17.6982 32.0086 17.7153C32.026 17.7325 32.0347 17.7582 32.0521 17.7839C32.0694 17.8096 32.0781 17.8268 32.0955 17.8525C32.1129 17.8782 32.1216 17.9039 32.1389 17.921C32.1476 17.9467 32.165 17.9639 32.1737 17.9896C32.1824 18.0153 32.1998 18.041 32.2085 18.0667C32.2171 18.0924 32.2258 18.1096 32.2345 18.1353C32.2432 18.161 32.2519 18.1953 32.2606 18.221C32.2693 18.2467 32.278 18.2639 32.278 18.2896C32.2867 18.3238 32.2953 18.3581 32.2953 18.3924C32.2953 18.4096 32.304 18.4267 32.304 18.4524C32.3127 18.5038 32.3214 18.5638 32.3214 18.6152C32.3214 18.6667 32.3214 18.7181 32.3214 18.7695C32.3214 18.7781 32.3214 18.7781 32.3214 18.7867C32.3214 18.8381 32.3127 18.8895 32.304 18.9324C32.304 18.9409 32.304 18.9409 32.304 18.9495C32.2953 19.0009 32.2867 19.0523 32.2693 19.0952C32.2693 19.0952 32.2693 19.0952 32.2693 19.1038C32.1998 19.3609 32.0694 19.6009 31.887 19.798C31.8522 19.8323 31.8175 19.8665 31.7827 19.9008C31.774 19.9094 31.7653 19.9094 31.7653 19.918C31.4699 20.1665 31.1137 20.3294 30.714 20.3465ZM33.1034 10.4904C33.1034 9.65044 33.7985 8.9648 34.65 8.9648C35.5015 8.9648 36.1966 9.65044 36.1966 10.4904C36.1966 11.3303 35.5015 12.0159 34.65 12.0159C33.7985 12.0159 33.1034 11.3303 33.1034 10.4904ZM37.1872 14.5099C36.3357 14.5099 35.6406 13.8243 35.6406 12.9844C35.6406 12.1445 36.3357 11.4588 37.1872 11.4588C38.0387 11.4588 38.7338 12.1445 38.7338 12.9844C38.7338 13.8243 38.0387 14.5099 37.1872 14.5099ZM39.7156 12.0159C38.8641 12.0159 38.169 11.3303 38.169 10.4904C38.169 9.65044 38.8641 8.9648 39.7156 8.9648C40.5671 8.9648 41.2622 9.65044 41.2622 10.4904C41.2622 11.3303 40.5758 12.0159 39.7156 12.0159Z" fill="#A3A3A3"/>
</g>
<defs>
<filter id="filter0_d_4_639" x="0" y="0" width="50" height="36" filterUnits="userSpaceOnUse" color-interpolation-filters="sRGB">
<feFlood flood-opacity="0" result="BackgroundImageFix"/>
<feColorMatrix in="SourceAlpha" type="matrix" values="0 0 0 0 0 0 0 0 0 0 0 0 0 0 0 0 0 0 127 0" result="hardAlpha"/>
<feOffset dy="4"/>
<feGaussianBlur stdDeviation="2"/>
<feComposite in2="hardAlpha" operator="out"/>
<feColorMatrix type="matrix" values="0 0 0 0 0 0 0 0 0 0 0 0 0 0 0 0 0 0 0.25 0"/>
<feBlend mode="normal" in2="BackgroundImageFix" result="effect1_dropShadow_4_639"/>
<feBlend mode="normal" in="SourceGraphic" in2="effect1_dropShadow_4_639" result="shape"/>
</filter>
</defs>
</svg>
