<svg width="28" height="26" viewBox="0 0 28 26" fill="none" xmlns="http://www.w3.org/2000/svg">
<path fill-rule="evenodd" clip-rule="evenodd" d="M27.449 9.64186C27.314 9.22718 26.9474 8.95887 26.5154 8.95887L17.6839 8.93651L14.8992 0.673587C14.7602 0.260949 14.3966 -0.0165142 13.9575 0.0007637C13.5254 0.00584545 13.1609 0.276194 13.0309 0.691881L10.4235 8.93651L1.48523 8.95887C1.05317 8.95887 0.68658 9.22718 0.551625 9.64084C0.415663 10.0555 0.553639 10.4915 0.902105 10.7497L7.8966 15.9544L5.15319 24.7021C5.02226 25.1178 5.16326 25.5508 5.51374 25.8069C5.68999 25.935 5.89141 26 6.09284 26C6.29225 26 6.49065 25.937 6.66287 25.812L14.0371 20.5676L21.3377 25.8079C21.6852 26.064 22.1404 26.063 22.4899 25.8069C22.8404 25.5518 22.9814 25.1188 22.8514 24.7031L20.104 15.9544L27.0975 10.7507C27.4459 10.4915 27.5839 10.0555 27.449 9.64186" fill="#1064BC"/>
</svg>
